<svg xmlns="http://www.w3.org/2000/svg" width="84" height="17" fill="none" viewBox="0 0 84 17">
  <path fill="#000" d="M0 12.25v-3.5h1.75V7H3.5V5.25H1.75V3.5H0V0h3.5v3.5h1.75v1.75H7V3.5h1.75V0h3.5v3.5H10.5v1.75H8.75V7h1.75v1.75h1.75v3.5h-3.5v-3.5H7V7H5.25v1.75H3.5v3.5H0Zm15.75 0V10.5H14V1.75h1.75V0h8.75v1.75h1.75v8.75H24.5v1.75h-8.75Zm1.75-1.75h5.25V1.75H17.5v8.75ZM28 12.25V0h10.5v1.75h1.75V7H38.5v1.75h-7v3.5H28ZM31.5 7h5.25V1.75H31.5V7Zm12.25 5.25V10.5H42V1.75h1.75V0h8.75v1.75h1.75v8.75H52.5v1.75h-8.75Zm1.75-1.75h5.25V1.75H45.5v8.75ZM56 12.25V0h3.5v10.5h1.75V0H63v10.5h1.75V0h3.5v12.25H56Zm15.75 0V10.5H70V1.75h1.75V0h8.75v1.75h1.75v8.75H80.5v1.75h-8.75Zm1.75-1.75h5.25V1.75H73.5v8.75Z"/>
</svg>
